<?xml version="1.0" standalone="no"?>
<!DOCTYPE svg PUBLIC "-//W3C//DTD SVG 20010904//EN"
 "http://www.w3.org/TR/2001/REC-SVG-20010904/DTD/svg10.dtd">
<svg version="1.0" xmlns="http://www.w3.org/2000/svg"
 width="144.000000pt" height="144.000000pt" viewBox="0 0 144.000000 144.000000"
 preserveAspectRatio="xMidYMid meet">
<metadata>
Created by potrace 1.11, written by Peter Selinger 2001-2013
</metadata>
<g transform="translate(0.000000,144.000000) scale(0.100000,-0.100000)"
fill="#000000" stroke="none">
<path d="M585 1305 c-200 -46 -373 -207 -437 -405 -29 -92 -33 -232 -7 -329
54 -211 235 -385 448 -435 63 -15 199 -15 264 -1 132 28 253 110 359 243 56
70 106 222 104 317 l-1 60 -47 -3 c-30 -2 -60 2 -79 12 -40 20 -48 20 -110 0
-92 -30 -190 -5 -258 67 -65 70 -89 177 -56 256 19 45 19 62 -1 102 -11 23
-14 45 -9 81 l7 49 -64 -2 c-34 0 -85 -6 -113 -12z"/>
<path d="M1040 1300 c-11 -11 -20 -29 -20 -40 0 -11 9 -29 20 -40 11 -11 29
-20 40 -20 11 0 29 9 40 20 11 11 20 29 20 40 0 11 -9 29 -20 40 -11 11 -29
20 -40 20 -11 0 -29 -9 -40 -20z"/>
<path d="M1000 1095 c-16 -20 -5 -62 19 -70 42 -13 72 25 51 65 -13 24 -52 27
-70 5z"/>
<path d="M1246 1004 c-30 -29 -10 -74 33 -74 14 0 41 29 41 45 0 18 -27 45
-45 45 -7 0 -21 -7 -29 -16z"/>
</g>
</svg>
